<?xml version="1.0" standalone="no"?><!DOCTYPE svg PUBLIC "-//W3C//DTD SVG 1.1//EN" "http://www.w3.org/Graphics/SVG/1.1/DTD/svg11.dtd"><svg t="1721149178001" class="icon" viewBox="0 0 1024 1024" version="1.1" xmlns="http://www.w3.org/2000/svg" p-id="3377" xmlns:xlink="http://www.w3.org/1999/xlink" width="200" height="200"><path d="M784 992H240v-16a48 48 0 0 1 48-48h448a48 48 0 0 1 48 48v16z" fill="#515F5F" p-id="3378"></path><path d="M688 928H288a48 48 0 0 0-48 48v16h496v-16a48 48 0 0 0-48-48z" fill="#6C7F7F" p-id="3379"></path><path d="M384 928V768h256v160" fill="#364040" p-id="3380"></path><path d="M384 768h208v160H384z" fill="#515F5F" p-id="3381"></path><path d="M992 640H32V208a64 64 0 0 1 64-64h832a64 64 0 0 1 64 64v432z" fill="#7FCDEE" p-id="3382"></path><path d="M880 144H96a64 64 0 0 0-64 64v432h912V208a64 64 0 0 0-64-64z" fill="#A9DDF3" p-id="3383"></path><path d="M832 464V80a48 48 0 0 0-48-48H240a48 48 0 0 0-48 48v384a48 48 0 0 0 48 48h336l64 64 64-64h80a48 48 0 0 0 48-48z" fill="#929999" p-id="3384"></path><path d="M784 464V80a48 48 0 0 0-48-48H240a48 48 0 0 0-48 48v384a48 48 0 0 0 48 48h336l40 40L656 512h80a48 48 0 0 0 48-48z" fill="#C2CCCC" p-id="3385"></path><path d="M704 448L592 96H432l-112 352h96l32-112h128l32 112z" fill="#FFF284" p-id="3386"></path><path d="M704 448L592 96H432l-112 352h96l32-112h128l32 112z" fill="#FFF284" p-id="3387"></path><path d="M464 272h96l-48-112z" fill="#C2CCCC" p-id="3388"></path><path d="M992 640v64a64 64 0 0 1-64 64H96a64 64 0 0 1-64-64v-64" fill="#515F5F" p-id="3389"></path><path d="M944 704v-64H32v64a64 64 0 0 0 64 64h784a64 64 0 0 0 64-64z" fill="#6C7F7F" p-id="3390"></path><path d="M448 688h128v32h-128zM880 688h32v32h-32zM816 688h32v32h-32zM112 688h32v32H112zM176 688h32v32h-32z" fill="#4D4D4D" p-id="3391"></path></svg>